<svg xmlns="http://www.w3.org/2000/svg" viewBox="0 0 600 450" preserveAspectRatio="xMidYMid slice" role="img" aria-label="Secure telehealth video">
<defs>
<linearGradient id="bg" x1="0" y1="0" x2="1" y2="1"><stop offset="0" stop-color="#EEF4FF"/><stop offset="1" stop-color="#E3EDFF"/></linearGradient>
<linearGradient id="blue" x1="0" y1="0" x2="1" y2="1"><stop offset="0" stop-color="#2E7BF0"/><stop offset="1" stop-color="#1B4FB0"/></linearGradient>
<linearGradient id="green" x1="0" y1="0" x2="1" y2="1"><stop offset="0" stop-color="#34C883"/><stop offset="1" stop-color="#1E9C63"/></linearGradient>
<linearGradient id="area" x1="0" y1="0" x2="0" y2="1"><stop offset="0" stop-color="#1F6AE1" stop-opacity="0.28"/><stop offset="1" stop-color="#1F6AE1" stop-opacity="0"/></linearGradient>
<filter id="sh" x="-20%" y="-20%" width="140%" height="140%"><feDropShadow dx="0" dy="10" stdDeviation="16" flood-color="#1F3A6B" flood-opacity="0.16"/></filter>
<filter id="sh2" x="-30%" y="-30%" width="160%" height="160%"><feDropShadow dx="0" dy="6" stdDeviation="9" flood-color="#1F3A6B" flood-opacity="0.18"/></filter>
</defs>
<style>
text{font-family:Inter,Segoe UI,system-ui,sans-serif}
.flt{animation:flt 5s ease-in-out infinite}
@keyframes flt{0%,100%{transform:translateY(0)}50%{transform:translateY(-9px)}}
.flt2{animation:flt 6s ease-in-out infinite;animation-delay:-2s}
.pulse{animation:pl 2.4s ease-in-out infinite}
@keyframes pl{0%,100%{opacity:.55;transform:scale(1)}50%{opacity:1;transform:scale(1.12)}}
.fadeup{opacity:0;animation:fu .8s ease forwards}
@keyframes fu{to{opacity:1;transform:translateY(0)}}
.draw{stroke-dasharray:1400;stroke-dashoffset:1400;animation:dr 2.6s ease forwards}
@keyframes dr{to{stroke-dashoffset:0}}
.grow{transform:scaleY(0);transform-origin:bottom;animation:gr 1.4s cubic-bezier(.2,.8,.2,1) forwards}
@keyframes gr{to{transform:scaleY(1)}}
.spin{transform-origin:center;animation:sp 1.4s ease forwards}
@keyframes sp{0%{opacity:0;transform:scale(.4) rotate(-25deg)}100%{opacity:1;transform:scale(1) rotate(0)}}
.ring{stroke-dasharray:540;stroke-dashoffset:540;animation:dr 1.8s ease forwards}
.blink{animation:bl 1.3s steps(1) infinite}
@keyframes bl{50%{opacity:.25}}
.sweep{animation:sw 3.2s ease-in-out infinite}
@keyframes sw{0%{transform:translateX(-160px);opacity:0}30%{opacity:.5}60%{opacity:0}100%{transform:translateX(420px);opacity:0}}
.rise{animation:ri 3s ease-in-out infinite}
@keyframes ri{0%{opacity:0;transform:translateY(16px) scale(.9)}40%{opacity:1}100%{opacity:0;transform:translateY(-34px) scale(1.1)}}
</style><rect width="600" height="450" fill="url(#bg)"/>
<g class="flt2"><rect x="64" y="56" width="472" height="300" rx="20" fill="#0F172A" filter="url(#sh)"/></g>
<rect x="84" y="76" width="300" height="220" rx="14" fill="#1E293B"/>
<circle cx="234" cy="164" r="46" fill="#334155"/><circle cx="234" cy="148" r="18" fill="#64748B"/><path d="M204 200 a30 26 0 0 1 60 0z" fill="#64748B"/>
<rect x="398" y="76" width="118" height="104" rx="12" fill="#22304A"/><circle cx="457" cy="120" r="26" fill="#3B4D6B"/><circle cx="457" cy="110" r="10" fill="#7C8CA8"/><path d="M441 142 a16 14 0 0 1 32 0z" fill="#7C8CA8"/>
<text x="92" y="288" font-size="12" fill="#CBD5E1">Dr. Mehta</text>
<g class="blink"><circle cx="368" cy="92" r="6" fill="#FF5A5A"/></g><text x="380" y="97" font-size="11" fill="#FCA5A5">REC</text>
<rect x="250" y="250" width="5" height="30" rx="2.5" fill="#7FB1FF" style="transform-origin:252px 265px;animation:gr 1s ease-in-out 0.00s infinite alternate"/><rect x="259" y="250" width="5" height="30" rx="2.5" fill="#7FB1FF" style="transform-origin:261px 265px;animation:gr 1s ease-in-out 0.08s infinite alternate"/><rect x="268" y="250" width="5" height="30" rx="2.5" fill="#7FB1FF" style="transform-origin:270px 265px;animation:gr 1s ease-in-out 0.16s infinite alternate"/><rect x="277" y="250" width="5" height="30" rx="2.5" fill="#7FB1FF" style="transform-origin:279px 265px;animation:gr 1s ease-in-out 0.24s infinite alternate"/><rect x="286" y="250" width="5" height="30" rx="2.5" fill="#7FB1FF" style="transform-origin:288px 265px;animation:gr 1s ease-in-out 0.32s infinite alternate"/><rect x="295" y="250" width="5" height="30" rx="2.5" fill="#7FB1FF" style="transform-origin:297px 265px;animation:gr 1s ease-in-out 0.40s infinite alternate"/><rect x="304" y="250" width="5" height="30" rx="2.5" fill="#7FB1FF" style="transform-origin:306px 265px;animation:gr 1s ease-in-out 0.48s infinite alternate"/><rect x="313" y="250" width="5" height="30" rx="2.5" fill="#7FB1FF" style="transform-origin:315px 265px;animation:gr 1s ease-in-out 0.56s infinite alternate"/><rect x="322" y="250" width="5" height="30" rx="2.5" fill="#7FB1FF" style="transform-origin:324px 265px;animation:gr 1s ease-in-out 0.64s infinite alternate"/><rect x="331" y="250" width="5" height="30" rx="2.5" fill="#7FB1FF" style="transform-origin:333px 265px;animation:gr 1s ease-in-out 0.72s infinite alternate"/><rect x="340" y="250" width="5" height="30" rx="2.5" fill="#7FB1FF" style="transform-origin:342px 265px;animation:gr 1s ease-in-out 0.80s infinite alternate"/><rect x="349" y="250" width="5" height="30" rx="2.5" fill="#7FB1FF" style="transform-origin:351px 265px;animation:gr 1s ease-in-out 0.88s infinite alternate"/><rect x="358" y="250" width="5" height="30" rx="2.5" fill="#7FB1FF" style="transform-origin:360px 265px;animation:gr 1s ease-in-out 0.96s infinite alternate"/><rect x="367" y="250" width="5" height="30" rx="2.5" fill="#7FB1FF" style="transform-origin:369px 265px;animation:gr 1s ease-in-out 1.04s infinite alternate"/><rect x="376" y="250" width="5" height="30" rx="2.5" fill="#7FB1FF" style="transform-origin:378px 265px;animation:gr 1s ease-in-out 1.12s infinite alternate"/><rect x="385" y="250" width="5" height="30" rx="2.5" fill="#7FB1FF" style="transform-origin:387px 265px;animation:gr 1s ease-in-out 1.20s infinite alternate"/><rect x="394" y="250" width="5" height="30" rx="2.5" fill="#7FB1FF" style="transform-origin:396px 265px;animation:gr 1s ease-in-out 1.28s infinite alternate"/><rect x="403" y="250" width="5" height="30" rx="2.5" fill="#7FB1FF" style="transform-origin:405px 265px;animation:gr 1s ease-in-out 1.36s infinite alternate"/>
<rect x="398" y="196" width="118" height="100" rx="12" fill="#16233A"/><text x="412" y="226" font-size="11" fill="#94A3B8">Encrypted</text><text x="412" y="246" font-size="11" fill="#94A3B8">HD video</text>
<g transform="translate(0,0)"><circle cx="246" cy="330" r="20" fill="#1F6AE1"/><rect x="238" y="322" width="16" height="16" rx="4" fill="#fff"/><circle cx="300" cy="330" r="20" fill="#2BB673"/><path d="M291 330 l6 6 l11 -12" fill="none" stroke="#fff" stroke-width="3" stroke-linecap="round"/><circle cx="354" cy="330" r="20" fill="#EF4444"/><rect x="345" y="327" width="18" height="6" rx="3" fill="#fff" transform="rotate(135 354 330)"/></g>
<g class="flt"><rect x="380" y="372" width="156" height="40" rx="20" fill="url(#green)" filter="url(#sh2)"/><text x="458" y="397" font-size="13" font-weight="800" fill="#fff" text-anchor="middle">Prescription sent</text></g>
<g class="flt2"><rect x="64" y="372" width="150" height="40" rx="20" fill="#fff" filter="url(#sh2)"/><text x="139" y="397" font-size="13" font-weight="700" fill="#1F6AE1" text-anchor="middle">No app needed</text></g>
</svg>